<svg width="16" height="16" viewBox="0 0 16 16" fill="none" xmlns="http://www.w3.org/2000/svg">
<path d="M8 9.33333C9.10457 9.33333 10 8.4379 10 7.33333C10 6.22876 9.10457 5.33333 8 5.33333C6.89543 5.33333 6 6.22876 6 7.33333C6 8.4379 6.89543 9.33333 8 9.33333Z" stroke="#1F222D" stroke-width="1.5" stroke-linecap="round" stroke-linejoin="round"/>
<path d="M11.7717 11.1047L8.94299 13.9333C8.69298 14.1831 8.35405 14.3234 8.00066 14.3234C7.64727 14.3234 7.30834 14.1831 7.05833 13.9333L4.22899 11.1047C3.48314 10.3588 2.97522 9.40847 2.76945 8.37391C2.56369 7.33935 2.66932 6.26701 3.073 5.29249C3.47667 4.31796 4.16026 3.48503 5.03732 2.899C5.91437 2.31298 6.94551 2.00019 8.00033 2.00019C9.05515 2.00019 10.0863 2.31298 10.9633 2.899C11.8404 3.48503 12.524 4.31796 12.9277 5.29249C13.3313 6.26701 13.437 7.33935 13.2312 8.37391C13.0254 9.40847 12.5175 10.3588 11.7717 11.1047V11.1047Z" stroke="#1F222D" stroke-width="1.5" stroke-linecap="round" stroke-linejoin="round"/>
</svg>
