<svg width="16" height="16" viewBox="0 0 16 16" fill="none" xmlns="http://www.w3.org/2000/svg">
<path d="M10.6665 4.00002H12.6665C12.8433 4.00002 13.0129 4.07026 13.1379 4.19528C13.2629 4.32031 13.3332 4.48988 13.3332 4.66669V12C13.3332 12.3536 13.1927 12.6928 12.9426 12.9428C12.6926 13.1929 12.3535 13.3334 11.9998 13.3334C11.6462 13.3334 11.3071 13.1929 11.057 12.9428C10.807 12.6928 10.6665 12.3536 10.6665 12V3.33335C10.6665 3.15654 10.5963 2.98697 10.4712 2.86195C10.3462 2.73693 10.1766 2.66669 9.99984 2.66669H3.33317C3.15636 2.66669 2.98679 2.73693 2.86177 2.86195C2.73674 2.98697 2.6665 3.15654 2.6665 3.33335V11.3334C2.6665 11.8638 2.87722 12.3725 3.25229 12.7476C3.62736 13.1226 4.13607 13.3334 4.6665 13.3334H11.9998" stroke="#5F666D" stroke-width="1.5" stroke-linecap="round" stroke-linejoin="round"/>
<path d="M5.3335 5.33331H8.00016" stroke="#5F666D" stroke-width="1.5" stroke-linecap="round" stroke-linejoin="round"/>
<path d="M5.3335 8H8.00016" stroke="#5F666D" stroke-width="1.5" stroke-linecap="round" stroke-linejoin="round"/>
<path d="M5.3335 10.6667H8.00016" stroke="#5F666D" stroke-width="1.5" stroke-linecap="round" stroke-linejoin="round"/>
</svg>
